<svg width="26" height="26" viewBox="0 0 26 26" fill="none" xmlns="http://www.w3.org/2000/svg">
<path d="M6.33287 1V6.62616M12.8778 1V6.62616M19.6247 1V6.62616M7.22168 15.1244L10.8981 18.6653C11.1809 19.0588 11.9728 19.6096 12.8778 18.6653C13.7827 17.7211 17.2141 13.1572 18.8166 10.9933M24.9979 21.4194C25.0383 22.626 24.505 25.0312 22.0487 24.9997C19.5923 24.9682 9.22824 24.9866 4.35325 24.9997C3.2355 24.9866 1 24.4489 1 22.403C1 20.3571 1 10.8228 1 6.31141C1.13467 5.4983 1.83225 3.87209 3.54523 3.87209C5.25822 3.87209 16.5946 3.87209 22.0487 3.87209C23.0318 3.9639 24.9979 4.58028 24.9979 6.31141C24.9979 8.04253 24.9979 14.849 24.9979 18.0358V21.4194Z" stroke="#4B4B4B" stroke-width="2" stroke-linecap="round" stroke-linejoin="round"/>
</svg>
